HIERARCHY
ROOT Hips
{
	OFFSET 0.00000 0.00000 0.00000
	CHANNELS 6 Xposition Yposition Zposition Zrotation Yrotation Xrotation 
	JOINT LHipJoint
	{
		OFFSET 0 0 0
		CHANNELS 3 Zrotation Yrotation Xrotation
		JOINT LeftUpLeg
		{
			OFFSET 1.62964 -1.40469 0.78906
			CHANNELS 3 Zrotation Yrotation Xrotation
			JOINT LeftLeg
			{
				OFFSET 2.29640 -6.30932 0.00000
				CHANNELS 3 Zrotation Yrotation Xrotation
				JOINT LeftFoot
				{
					OFFSET 2.29451 -6.30412 0.00000
					CHANNELS 3 Zrotation Yrotation Xrotation
					JOINT LeftToeBase
					{
						OFFSET 0.03611 -0.09921 1.56387
						CHANNELS 3 Zrotation Yrotation Xrotation
						End Site
						{
							OFFSET 0.00000 -0.00000 0.80291
						}
					}
				}
			}
		}
	}
	JOINT RHipJoint
	{
		OFFSET 0 0 0
		CHANNELS 3 Zrotation Yrotation Xrotation
		JOINT RightUpLeg
		{
			OFFSET -1.73712 -1.40469 0.78906
			CHANNELS 3 Zrotation Yrotation Xrotation
			JOINT RightLeg
			{
				OFFSET -2.28137 -6.26801 0.00000
				CHANNELS 3 Zrotation Yrotation Xrotation
				JOINT RightFoot
				{
					OFFSET -2.28681 -6.28298 0.00000
					CHANNELS 3 Zrotation Yrotation Xrotation
					JOINT RightToeBase
					{
						OFFSET -0.15927 -0.43759 1.61103
						CHANNELS 3 Zrotation Yrotation Xrotation
						End Site
						{
							OFFSET -0.00000 -0.00000 0.84630
						}
					}
				}
			}
		}
	}
	JOINT LowerBack
	{
		OFFSET 0 0 0
		CHANNELS 3 Zrotation Yrotation Xrotation
		JOINT Spine
		{
			OFFSET -0.04227 2.04338 -0.00225
			CHANNELS 3 Zrotation Yrotation Xrotation
			JOINT Spine1
			{
				OFFSET -0.02148 2.04482 -0.04273
				CHANNELS 3 Zrotation Yrotation Xrotation
				JOINT Neck
				{
					OFFSET 0 0 0
					CHANNELS 3 Zrotation Yrotation Xrotation
					JOINT Neck1
					{
						OFFSET 0.09180 1.44629 0.19359
						CHANNELS 3 Zrotation Yrotation Xrotation
						JOINT Head
						{
							OFFSET 0.00887 1.40645 0.14750
							CHANNELS 3 Zrotation Yrotation Xrotation
							End Site
							{
								OFFSET -0.00669 1.50671 0.03707
							}
						}
					}
				}
				JOINT LeftShoulder
				{
					OFFSET 0 0 0
					CHANNELS 3 Zrotation Yrotation Xrotation
					JOINT LeftArm
					{
						OFFSET 2.17674 1.86763 -0.06520
						CHANNELS 3 Zrotation Yrotation Xrotation
						JOINT LeftForeArm
						{
							OFFSET 4.65776 -0.00000 0.00000
							CHANNELS 3 Zrotation Yrotation Xrotation
							JOINT LeftHand
							{
								OFFSET 3.55539 -0.00000 0.00000
								CHANNELS 3 Zrotation Yrotation Xrotation
								JOINT LeftFingerBase
								{
									OFFSET 0 0 0
									CHANNELS 3 Zrotation Yrotation Xrotation
									JOINT LeftHandIndex1
									{
										OFFSET 0.70726 -0.00000 0.00000
										CHANNELS 3 Zrotation Yrotation Xrotation
										End Site
										{
											OFFSET 0.57022 -0.00000 0.00000
										}
									}
								}
								JOINT LThumb
								{
									OFFSET 0 0 0
									CHANNELS 3 Zrotation Yrotation Xrotation
									End Site
									{
										OFFSET 0.57892 -0.00000 0.57892
									}
								}
							}
						}
					}
				}
				JOINT RightShoulder
				{
					OFFSET 0 0 0
					CHANNELS 3 Zrotation Yrotation Xrotation
					JOINT RightArm
					{
						OFFSET -2.80694 1.55459 -0.32496
						CHANNELS 3 Zrotation Yrotation Xrotation
						JOINT RightForeArm
						{
							OFFSET -4.71925 -0.00000 -0.00000
							CHANNELS 3 Zrotation Yrotation Xrotation
							JOINT RightHand
							{
								OFFSET -3.56990 -0.00000 0.00000
								CHANNELS 3 Zrotation Yrotation Xrotation
								JOINT RightFingerBase
								{
									OFFSET 0 0 0
									CHANNELS 3 Zrotation Yrotation Xrotation
									JOINT RightHandIndex1
									{
										OFFSET -0.50776 -0.00000 0.00000
										CHANNELS 3 Zrotation Yrotation Xrotation
										End Site
										{
											OFFSET -0.40937 -0.00000 0.00000
										}
									}
								}
								JOINT RThumb
								{
									OFFSET 0 0 0
									CHANNELS 3 Zrotation Yrotation Xrotation
									End Site
									{
										OFFSET -0.41562 -0.00000 0.41562
									}
								}
							}
						}
					}
				}
			}
		}
	}
}
MOTION
Frames: 15
Frame Time: .0083333
16.2775 16.3783 20.7766 0 0 0 0 0 0 -21 0 0 0 0 0 0 0 0 0 0 0 0 0 0 21 0 0 0 0 0 0 0 0 0 0 0 0 0 0 0 0 0 0 0 0 0 0 -16 0 0 21 0 0 11 0 0 0 -8 0 0 0 0 0 0 0 0 0 0 0 0 0 0 0 0 0 0 0 0 8 0 0 0 0 0 0 0 0 0 0 0 0 0 0 0 0 0
16.2775 16.3783 20.7766 173.7630 -2.5748 -154.5590 0.0000 0.0000 0.0000 -25.8142 -18.5927 -18.3571 0.2643 3.3072 9.1352 0.0634 -6.2244 -5.8912 2.8739 -10.4881 -30.5721 0.0000 0.0000 0.0000 13.0270 13.4074 -19.5864 -0.1415 -2.4239 6.6788 -0.9781 3.5249 -17.8416 -0.9119 6.0849 -17.0310 -11.9248 -3.0984 -31.4571 -1.3652 -0.2900 -0.6757 4.6887 -1.2590 15.6066 -1.6330 -1.5108 -5.6757 4.4416 -2.0794 -0.0578 1.6117 -1.0152 1.0126 -0.0000 -0.0000 0.0000 -84.4988 -1.5719 18.8365 10.4082 -17.3756 -1.5947 -0.0000 -0.0000 6.5897 25.1547 -11.7033 -5.4413 -7.1250 0.0000 -0.0000 -1.4063 17.0917 0.9312 -0.0000 -0.0000 0.0000 91.4137 -1.5558 4.7578 -14.4203 23.3324 -2.9926 0.0000 -0.0000 -1.0284 -12.6909 -56.6868 10.6578 7.1250 -0.0000 -0.0000 81.6860 -76.5895 -67.8186
16.2786 16.3787 20.7770 173.7720 -2.5567 -154.5790 0.0000 0.0000 0.0000 -25.7941 -18.6478 -18.2937 0.2644 3.3080 9.1374 0.0671 -6.1731 -5.9463 2.7932 -10.3525 -30.1258 0.0000 0.0000 0.0000 13.0447 13.4150 -19.5887 -0.1427 -2.4346 6.7083 -0.9802 3.5372 -17.8590 -0.9719 6.2764 -17.5885 -11.9218 -3.1071 -31.4395 -1.3516 -0.3075 -0.6820 4.6954 -1.2659 15.5944 -1.6345 -1.5126 -5.6748 4.4282 -2.0814 0.0004 1.6077 -1.0150 1.0307 -0.0000 0.0000 0.0000 -84.5747 -1.6371 19.1326 10.5037 -17.5236 -1.6233 -0.0000 -0.0000 6.2981 24.9006 -11.9116 -5.4729 -7.1250 0.0000 -0.0000 -1.5956 16.8908 1.0636 -0.0000 0.0000 0.0000 91.3860 -1.5678 4.9908 -14.5194 23.4724 -3.0319 0.0000 -0.0000 -1.0791 -14.6160 -58.4764 12.5328 7.1250 -0.0000 -0.0000 89.8078 -77.1639 -76.6321
16.2792 16.3799 20.7769 173.8230 -2.5636 -154.5960 0.0000 0.0000 0.0000 -25.7369 -18.5893 -18.2932 0.2670 3.3239 9.1819 0.0686 -6.2432 -6.0119 2.7973 -10.3594 -30.1486 0.0000 0.0000 0.0000 13.1066 13.4484 -19.5781 -0.1438 -2.4437 6.7335 -0.9849 3.5429 -17.9026 -0.9899 6.3323 -17.7516 -11.8664 -3.1157 -31.4649 -1.3272 -0.3300 -0.6526 4.6841 -1.2737 15.6467 -1.6775 -1.4987 -5.6684 4.4773 -2.0615 -0.0206 1.6316 -1.0051 1.0239 0.0000 -0.0000 0.0000 -84.6013 -1.8086 19.6163 10.5558 -17.6042 -1.6391 -0.0000 -0.0000 5.7631 24.8055 -12.2621 -5.6062 -7.1250 0.0000 -0.0000 -1.6825 16.5185 1.1352 0.0000 -0.0000 0.0000 91.3439 -1.4375 5.1378 -14.5433 23.5061 -3.0415 0.0000 -0.0000 -1.0778 -16.5278 -59.9694 14.4081 7.1250 -0.0000 -0.0000 84.6812 77.5096 97.2926
16.2807 16.3813 20.7760 173.9170 -2.6503 -154.6620 0.0000 0.0000 0.0000 -25.6171 -18.5229 -18.2494 0.2680 3.3305 9.2001 0.0647 -6.2966 -5.9547 2.7812 -10.3321 -30.0591 0.0000 0.0000 0.0000 13.2623 13.4693 -19.4143 -0.1392 -2.4042 6.6242 -0.9764 3.4390 -17.8377 -0.9757 6.2882 -17.6228 -11.7664 -3.1305 -31.4491 -1.2849 -0.3754 -0.5975 4.6615 -1.2874 15.7172 -1.7461 -1.4571 -5.7276 4.5025 -2.0022 -0.0276 1.6532 -0.9749 1.0315 -0.0000 -0.0000 0.0000 -84.6578 -2.0429 19.9563 10.5913 -17.6591 -1.6498 -0.0000 -0.0000 5.4299 24.7756 -12.3124 -5.6210 -7.1250 0.0000 -0.0000 -1.7062 16.4669 1.1531 -0.0000 -0.0000 0.0000 91.3168 -1.1664 5.2112 -14.4974 23.4414 -3.0232 0.0000 -0.0000 -1.2245 -18.5238 -61.3297 16.3821 7.1250 -0.0000 -0.0000 92.5736 77.9387 104.9563
16.2818 16.3827 20.7751 173.9980 -2.7311 -154.7280 0.0000 0.0000 0.0000 -25.4948 -18.5934 -18.1402 0.2665 3.3210 9.1737 0.0650 -6.1956 -5.9116 2.6433 -10.0939 -29.2813 0.0000 0.0000 0.0000 13.3986 13.4856 -19.2917 -0.1374 -2.3893 6.5828 -0.9795 3.3991 -17.8735 -0.9557 6.2253 -17.4397 -11.6789 -3.1331 -31.3815 -1.2570 -0.4175 -0.5936 4.6315 -1.2969 15.7015 -1.7775 -1.4405 -5.7203 4.5355 -1.9790 -0.0072 1.6701 -0.9626 1.0369 0.0000 -0.0000 0.0000 -84.7222 -2.1556 20.1241 10.6668 -17.7757 -1.6728 -0.0000 -0.0000 5.4325 24.7965 -12.2619 -5.6038 -7.1250 0.0000 -0.0000 -1.6887 16.5197 1.1393 0.0000 -0.0000 0.0000 91.3352 -1.1139 5.4438 -14.6220 23.6169 -3.0729 0.0000 -0.0000 -1.3287 -20.7872 -62.8396 18.6624 7.1250 -0.0000 -0.0000 101.7192 78.0687 113.9001
16.2817 16.3807 20.7735 174.0350 -2.7212 -154.7360 0.0000 0.0000 0.0000 -25.4470 -18.6307 -18.0985 0.2638 3.3042 9.1269 0.0695 -6.1240 -5.9736 2.6792 -10.1567 -29.4855 0.0000 0.0000 0.0000 13.4458 13.4925 -19.2937 -0.1386 -2.3991 6.6100 -0.9928 3.4644 -17.9884 -0.9648 6.2541 -17.5233 -11.6167 -3.1154 -31.3711 -1.2654 -0.4258 -0.6328 4.5859 -1.2941 15.6518 -1.7043 -1.4639 -5.6988 4.5121 -2.0158 0.1025 1.6489 -0.9792 1.0677 -0.0000 0.0000 0.0000 -84.7554 -2.0966 20.4294 10.8163 -18.0062 -1.7187 -0.0000 -0.0000 5.2927 24.7189 -12.2621 -5.5841 -7.1250 0.0000 -0.0000 -1.7425 16.5278 1.1754 -0.0000 0.0000 0.0000 91.3484 -1.2531 5.7629 -14.8117 23.8832 -3.1493 0.0000 -0.0000 -1.4520 -23.1427 -64.2114 21.0492 7.1250 -0.0000 -0.0000 110.2637 77.9103 122.2443
16.2810 16.3781 20.7735 174.0500 -2.6378 -154.7060 0.0000 0.0000 0.0000 -25.4418 -18.5964 -18.1462 0.2624 3.2957 9.1032 0.0726 -6.0989 -6.0295 2.7221 -10.2309 -29.7278 0.0000 0.0000 0.0000 13.4313 13.5452 -19.3454 -0.1393 -2.4054 6.6275 -0.9893 3.4694 -17.9547 -1.0097 6.3936 -17.9308 -11.5980 -3.0863 -31.4273 -1.2668 -0.3922 -0.6487 4.5871 -1.2795 15.6524 -1.6584 -1.4942 -5.7213 4.4634 -2.0586 0.1824 1.6241 -0.9992 1.0969 0.0000 -0.0000 0.0000 -84.8180 -2.1155 20.8135 10.9359 -18.1899 -1.7558 -0.0000 -0.0000 4.9251 24.4068 -12.1320 -5.4476 -7.1250 0.0000 -0.0000 -1.9516 16.7025 1.3091 0.0000 -0.0000 0.0000 91.2696 -1.3037 6.2762 -14.9498 24.0761 -3.2054 0.0000 -0.0000 -1.9993 -25.7594 -65.5434 23.7134 7.1250 -0.0000 -0.0000 118.4411 77.4856 130.2133
16.2811 16.3797 20.7760 174.1130 -2.6268 -154.6620 0.0000 0.0000 0.0000 -25.3430 -18.6221 -18.2276 0.2633 3.3013 9.1187 0.0740 -6.0491 -6.0371 2.8366 -10.4257 -30.3665 0.0000 0.0000 0.0000 13.4753 13.6490 -19.4045 -0.1409 -2.4194 6.6663 -0.9856 3.4053 -17.9298 -0.9654 6.2558 -17.5286 -11.5348 -3.0793 -31.4819 -1.2345 -0.4009 -0.6437 4.5851 -1.2808 15.6860 -1.7496 -1.4900 -5.7139 4.5314 -2.0480 0.1135 1.6622 -0.9947 1.0760 -0.0000 -0.0000 0.0000 -84.9070 -2.1879 21.1269 11.0316 -18.3367 -1.7859 -0.0000 -0.0000 4.7703 24.1910 -12.1362 -5.3953 -7.1250 0.0000 -0.0000 -2.1018 16.7206 1.4092 -0.0000 -0.0000 0.0000 91.2155 -1.1853 6.6501 -15.0572 24.2257 -3.2494 0.0000 -0.0000 -2.3768 -28.6368 -66.8956 26.6682 7.1250 -0.0000 -0.0000 126.0478 76.7659 137.6410
16.2846 16.3799 20.7793 174.1640 -2.7108 -154.5990 0.0000 0.0000 0.0000 -25.2302 -18.6347 -18.3483 0.2661 3.3182 9.1660 0.0713 -6.0993 -6.0008 2.8793 -10.4971 -30.6019 0.0000 0.0000 0.0000 13.5555 13.6925 -19.4758 -0.1423 -2.4312 6.6988 -0.9894 3.3562 -17.9733 -0.9030 6.0559 -16.9467 -11.5106 -3.1168 -31.5007 -1.2043 -0.4630 -0.6597 4.5791 -1.3069 15.6860 -1.7810 -1.4857 -5.7062 4.5896 -2.0420 0.0866 1.6867 -0.9919 1.0674 -0.0000 -0.0000 0.0000 -84.9410 -2.1654 21.5023 11.1876 -18.5752 -1.8352 -0.0000 -0.0000 4.6612 24.1099 -12.1903 -5.3984 -7.1250 0.0000 -0.0000 -2.1611 16.6702 1.4514 -0.0000 -0.0000 0.0000 91.2571 -1.1003 6.7071 -15.1549 24.3614 -3.2896 0.0000 -0.0000 -2.3132 -31.4622 -68.0398 29.5748 7.1250 -0.0000 -0.0000 132.0261 75.9513 143.4562
16.2878 16.3775 20.7800 174.1880 -2.7780 -154.6050 0.0000 0.0000 0.0000 -25.1822 -18.6388 -18.3427 0.2667 3.3224 9.1777 0.0691 -6.1784 -5.9925 2.8238 -10.4042 -30.2958 0.0000 0.0000 0.0000 13.6387 13.6710 -19.4305 -0.1401 -2.4125 6.6470 -0.9826 3.2994 -17.9180 -0.9353 6.1604 -17.2506 -11.5215 -3.1419 -31.4466 -1.1833 -0.5046 -0.6807 4.5921 -1.3236 15.6436 -1.6708 -1.5237 -5.7236 4.4936 -2.0983 0.1796 1.6348 -1.0189 1.0984 0.0000 0.0000 0.0000 -84.9601 -2.1354 21.8830 11.3391 -18.8062 -1.8838 -0.0000 -0.0000 4.3751 24.0067 -12.3254 -5.4308 -7.1250 0.0000 -0.0000 -2.2401 16.5345 1.5111 0.0000 0.0000 0.0000 91.2821 -1.0929 6.8133 -15.2472 24.4893 -3.3277 0.0000 -0.0000 -2.3365 -34.4170 -69.0565 32.6145 7.1250 -0.0000 -0.0000 137.0288 75.0614 148.2917
16.2880 16.3767 20.7793 174.2320 -2.7781 -154.6510 0.0000 0.0000 0.0000 -25.1389 -18.6576 -18.2647 0.2660 3.3178 9.1648 0.0710 -6.1697 -6.0289 2.7184 -10.2247 -29.7074 0.0000 0.0000 0.0000 13.7121 13.6753 -19.3736 -0.1398 -2.4098 6.6397 -0.9779 3.2811 -17.8758 -0.9657 6.2569 -17.5316 -11.4773 -3.1251 -31.3807 -1.1744 -0.5096 -0.6983 4.5786 -1.3195 15.5953 -1.5431 -1.5825 -5.7714 4.3814 -2.1833 0.2626 1.5738 -1.0605 1.1317 -0.0000 -0.0000 0.0000 -84.9807 -2.1431 22.2893 11.4229 -18.9335 -1.9109 -0.0000 -0.0000 4.1087 23.8790 -12.4416 -5.4483 -7.1250 0.0000 -0.0000 -2.3350 16.4221 1.5809 -0.0000 -0.0000 0.0000 91.3032 -1.0739 6.9631 -15.3291 24.6025 -3.3617 0.0000 -0.0000 -2.2984 -37.4782 -69.9893 35.7702 7.1250 -0.0000 -0.0000 141.2215 74.1038 152.3352
16.2876 16.3759 20.7767 174.2740 -2.7419 -154.6770 0.0000 0.0000 0.0000 -25.0971 -18.6530 -18.2260 0.2654 3.3143 9.1550 0.0745 -6.0852 -6.0636 2.8211 -10.3997 -30.2809 0.0000 0.0000 0.0000 13.7574 13.7248 -19.3191 -0.1387 -2.4006 6.6142 -0.9766 3.2562 -17.8678 -0.9536 6.2187 -17.4203 -11.4216 -3.1030 -31.4043 -1.1792 -0.4934 -0.6825 4.5506 -1.3094 15.6231 -1.4524 -1.6116 -5.8551 4.2891 -2.2269 0.3415 1.5269 -1.0811 1.1695 -0.0000 0.0000 0.0000 -84.9921 -2.2016 22.6303 11.4923 -19.0389 -1.9335 -0.0000 -0.0000 4.0702 23.4683 -12.4802 -5.3599 -7.1250 0.0000 -0.0000 -2.6215 16.4233 1.7753 -0.0000 0.0000 0.0000 91.3573 -1.0204 7.0806 -15.4436 24.7604 -3.4096 0.0000 -0.0000 -2.1040 -40.5356 -70.8327 38.9296 7.1250 -0.0000 -0.0000 144.6315 73.1233 155.6281
16.2875 16.3750 20.7732 174.3070 -2.7015 -154.7030 0.0000 0.0000 0.0000 -25.0674 -18.6558 -18.1776 0.2642 3.3066 9.1335 0.0792 -5.9960 -6.1240 2.9681 -10.6433 -31.0860 0.0000 0.0000 0.0000 13.7986 13.7711 -19.1937 -0.1324 -2.3458 6.4623 -0.9679 3.2011 -17.7936 -0.9677 6.2630 -17.5494 -11.3862 -3.0848 -31.4463 -1.1731 -0.4707 -0.6524 4.5478 -1.2991 15.6754 -1.4915 -1.5967 -5.8789 4.2980 -2.2048 0.3803 1.5372 -1.0689 1.1861 -0.0000 -0.0000 0.0000 -85.0461 -2.2159 22.8329 11.6309 -19.2487 -1.9789 -0.0000 -0.0000 4.1711 23.0854 -12.6408 -5.3289 -7.1250 0.0000 -0.0000 -2.8949 16.2900 1.9692 -0.0000 -0.0000 0.0000 91.3827 -0.9868 7.2526 -15.5966 24.9706 -3.4739 0.0000 -0.0000 -2.0226 -43.9228 -71.6498 42.4309 7.1250 -0.0000 -0.0000 147.6984 72.0544 158.5841
16.2886 16.3738 20.7722 174.3470 -2.7003 -154.7120 0.0000 0.0000 0.0000 -25.0144 -18.6758 -18.1586 0.2651 3.3126 9.1502 0.0806 -5.9439 -6.1299 2.9461 -10.6073 -30.9668 0.0000 0.0000 0.0000 13.8585 13.7950 -19.1127 -0.1279 -2.3052 6.3498 -0.9593 3.1875 -17.7139 -0.9886 6.3284 -17.7402 -11.3618 -3.0902 -31.4334 -1.1420 -0.4942 -0.6679 4.5601 -1.3070 15.6560 -0.7783 -2.0566 -6.5132 3.6593 -2.8610 0.7656 1.1857 -1.3930 1.4120 0.0000 0.0000 0.0000 -85.1402 -2.1411 22.9593 11.7926 -19.4929 -2.0326 -0.0000 -0.0000 4.1336 22.9056 -12.5989 -5.2658 -7.1250 0.0000 -0.0000 -3.0173 16.3536 2.0485 0.0000 0.0000 0.0000 91.3561 -1.0325 7.4822 -15.7342 25.1589 -3.5322 0.0000 -0.0000 -2.0298 -47.5934 -72.4009 46.2234 7.1250 -0.0000 -0.0000 150.3956 70.9376 161.1723
